<?xml version="1.0"?>
<svg width="580" height="580" xmlns="http://www.w3.org/2000/svg" xmlns:svg="http://www.w3.org/2000/svg" enable-background="new 0 0 580 580" version="1.1" xml:space="preserve">

 <g class="layer">
  <title>Layer 1</title>
  <g display="none" id="layer3" transform="matrix(48.14969,0,0,48.14969,-1210.2219,-51.870914)">
   <rect display="inline" fill="none" height="10" id="rect4134" stroke="#757575" stroke-width="0.1" width="10" x="1" y="1"/>
   <rect display="inline" fill="none" height="8" id="rect4136" stroke="#757575" stroke-width="0.1" width="8" x="2" y="2"/>
  </g>
  <g display="none" id="g9828" transform="matrix(48.14969,0,0,48.14969,-1870.5198,102.97115)">
   <rect display="inline" fill="none" height="10" id="rect9830" stroke="#757575" stroke-width="0.1" width="10" x="1" y="1"/>
   <rect display="inline" fill="none" height="8" id="rect9832" stroke="#757575" stroke-width="0.1" width="8" x="2" y="2"/>
  </g>
  <path d="m527.658,171.126c-33.138,-16.665 -64.521,-25.825 -97.748,-35.522c-29.75,-8.683 -60.514,-17.662 -92.881,-32.563l-0.308,-0.142l-0.33,0.074c-5.711,1.288 -11.042,2.306 -16.154,3.076l-51.866,-0.489c-3.109,-0.522 -6.255,-1.132 -9.449,-1.832l-0.365,-0.08l-0.328,0.179c-28.748,15.687 -57.458,22.856 -87.855,30.447c-32.521,8.121 -66.148,16.518 -102.735,36.107l-0.663,0.355l0.157,0.736c5.294,24.738 14.224,57.024 36.476,87.361l0.467,0.637l0.728,-0.307c1.883,-0.794 3.762,-1.597 5.64,-2.399c18.603,-7.949 37.809,-16.177 61.802,-15.698l0.756,225.285l0.861,0.118c41.708,5.736 86.99,11.045 135.486,11.044c38.793,-0.001 75.728,-3.368 112.912,-10.294l0.812,-0.151l1.512,-226.706c23.041,0.72 44.594,6.614 65.848,18.005l0.719,0.385l0.522,-0.626c18.775,-22.534 31.063,-51.452 36.523,-85.95l0.114,-0.721l-0.653,-0.329z" fill="#ff0000" id="svg_1" stroke="param(outline)" stroke-width="param(outline-width)"/>
 </g>
</svg>