<?xml version="1.0"?>
<svg width="580" height="580" xmlns="http://www.w3.org/2000/svg" xmlns:svg="http://www.w3.org/2000/svg" enable-background="new 0 0 580 580" version="1.1" xml:space="preserve">
 <g class="layer">
  <title>Layer 1</title>
  <circle cx="143.873" cy="454.941" fill="#7f007f" fill-opacity="param(fill-opacity)" id="svg_1" r="33.689" stroke="param(outline)" stroke-opacity="param(outline-opacity)" stroke-width="param(outline-width)"/>
  <circle cx="216.252" cy="454.941" fill="#7f007f" fill-opacity="param(fill-opacity)" id="svg_2" r="33.689" stroke="param(outline)" stroke-opacity="param(outline-opacity)" stroke-width="param(outline-width)"/>
  <circle cx="288.631" cy="454.941" fill="#7f007f" fill-opacity="param(fill-opacity)" id="svg_3" r="33.689" stroke="param(outline)" stroke-opacity="param(outline-opacity)" stroke-width="param(outline-width)"/>
  <circle cx="361.01" cy="454.941" fill="#7f007f" fill-opacity="param(fill-opacity)" id="svg_4" r="33.689" stroke="param(outline)" stroke-opacity="param(outline-opacity)" stroke-width="param(outline-width)"/>
  <circle cx="433.389" cy="454.941" fill="#7f007f" fill-opacity="param(fill-opacity)" id="svg_5" r="33.689" stroke="param(outline)" stroke-opacity="param(outline-opacity)" stroke-width="param(outline-width)"/>
  <circle cx="178.999" cy="391.101" fill="#7f007f" fill-opacity="param(fill-opacity)" id="svg_6" r="33.689" stroke="param(outline)" stroke-opacity="param(outline-opacity)" stroke-width="param(outline-width)"/>
  <circle cx="251.377" cy="391.101" fill="#7f007f" fill-opacity="param(fill-opacity)" id="svg_7" r="33.689" stroke="param(outline)" stroke-opacity="param(outline-opacity)" stroke-width="param(outline-width)"/>
  <circle cx="323.757" cy="391.101" fill="#7f007f" fill-opacity="param(fill-opacity)" id="svg_8" r="33.689" stroke="param(outline)" stroke-opacity="param(outline-opacity)" stroke-width="param(outline-width)"/>
  <circle cx="396.136" cy="391.101" fill="#7f007f" fill-opacity="param(fill-opacity)" id="svg_9" r="33.689" stroke="param(outline)" stroke-opacity="param(outline-opacity)" stroke-width="param(outline-width)"/>
  <circle cx="215.621" cy="328.19" fill="#7f007f" fill-opacity="param(fill-opacity)" id="svg_10" r="33.689" stroke="param(outline)" stroke-opacity="param(outline-opacity)" stroke-width="param(outline-width)"/>
  <circle cx="288" cy="328.19" fill="#7f007f" fill-opacity="param(fill-opacity)" id="svg_11" r="33.689" stroke="param(outline)" stroke-opacity="param(outline-opacity)" stroke-width="param(outline-width)"/>
  <circle cx="360.379" cy="328.19" fill="#7f007f" fill-opacity="param(fill-opacity)" id="svg_12" r="33.689" stroke="param(outline)" stroke-opacity="param(outline-opacity)" stroke-width="param(outline-width)"/>
  <circle cx="251.345" cy="265.884" fill="#7f007f" fill-opacity="param(fill-opacity)" id="svg_13" r="33.689" stroke="param(outline)" stroke-opacity="param(outline-opacity)" stroke-width="param(outline-width)"/>
  <circle cx="323.724" cy="265.884" fill="#7f007f" fill-opacity="param(fill-opacity)" id="svg_14" r="33.689" stroke="param(outline)" stroke-opacity="param(outline-opacity)" stroke-width="param(outline-width)"/>
  <circle cx="288" cy="204.646" fill="#7f007f" fill-opacity="param(fill-opacity)" id="svg_15" r="33.689" stroke="param(outline)" stroke-opacity="param(outline-opacity)" stroke-width="param(outline-width)"/>
  <path d="m485.368,430.94c-6.329,-10.965 -11.255,-19.225 -18.118,-30.608l-55.035,-95.801l-69.229,-121.448c-6.169,-10.799 -13.846,-24.239 -27.15,-31.921c-8.45,-4.878 -18.052,-7.458 -27.767,-7.458c-19.85,0 -38.336,10.662 -48.245,27.825c-3.533,6.119 -6.062,11.239 -8.508,16.191c-2.249,4.552 -4.372,8.852 -7.189,13.772c-0.029,0.05 -0.057,0.101 -0.084,0.152l-56.805,104.491l-68.755,111.303c-0.889,1.478 -1.806,2.947 -2.725,4.42c-5.811,9.316 -12.397,19.876 -12.397,33.41c0,30.762 26.984,57.745 57.746,57.745c5.994,0 11.014,0.195 15.869,0.384c5.798,0.225 11.265,0.438 17.966,0.331l143.864,-0.25l105.986,1.396l1.561,0.003c12.609,0 25.98,-0.612 38.648,-7.925c26.572,-15.342 35.708,-49.441 20.367,-76.012zm-28.246,62.364c-9.3,5.368 -19.861,5.813 -30.769,5.813l-1.432,-0.002l-105.969,-1.396c-0.035,-0.001 -0.07,-0.001 -0.105,-0.001c-0.004,0 -0.008,0 -0.012,0l-143.973,0.25c-0.038,0 -0.075,0 -0.113,0.001c-6.317,0.103 -11.552,-0.102 -17.162,-0.32c-5.005,-0.194 -10.182,-0.396 -16.481,-0.396c-21.974,0 -41.986,-20.012 -41.986,-41.985c0,-9.022 4.862,-16.817 10.01,-25.069c0.964,-1.546 1.926,-3.089 2.81,-4.559l68.818,-111.407c0.076,-0.124 0.149,-0.25 0.219,-0.378l56.868,-104.607c3.035,-5.308 5.355,-10.004 7.599,-14.547c2.335,-4.727 4.75,-9.615 8.027,-15.292c7.103,-12.302 20.359,-19.945 34.597,-19.945c6.953,0 13.829,1.849 19.886,5.346c9.614,5.551 15.578,15.992 21.343,26.083l69.239,121.465l55.089,95.895c0.028,0.049 0.056,0.097 0.085,0.144c6.835,11.338 11.729,19.544 18.01,30.424c10.996,19.044 4.447,43.486 -14.598,54.483z" fill="#7f007f" fill-opacity="param(fill-opacity)" id="svg_16" stroke="param(outline)" stroke-opacity="param(outline-opacity)" stroke-width="param(outline-width)"/>
  <circle cx="286" cy="90.27" fill="#7f007f" fill-opacity="param(fill-opacity)" id="svg_17" r="33.689" stroke="param(outline)" stroke-opacity="param(outline-opacity)" stroke-width="param(outline-width)"/>
 </g>
</svg>