<?xml version="1.0"?>
<svg width="580" height="580" xmlns="http://www.w3.org/2000/svg" xmlns:svg="http://www.w3.org/2000/svg" enable-background="new 0 0 580 580" version="1.1" xml:space="preserve">
 <g class="layer">
  <title>Layer 1</title>
  <g display="none" id="layer3" transform="matrix(48.14969,0,0,48.14969,-1210.2219,-51.870914)">
   <rect display="inline" fill="none" height="10" id="rect4134" stroke="#757575" stroke-width="0.1" width="10" x="1" y="1"/>
   <rect display="inline" fill="none" height="8" id="rect4136" stroke="#757575" stroke-width="0.1" width="8" x="2" y="2"/>
  </g>
  <g display="none" id="g9828" transform="matrix(48.14969,0,0,48.14969,-1870.5198,102.97115)">
   <rect display="inline" fill="none" height="10" id="rect9830" stroke="#757575" stroke-width="0.1" width="10" x="1" y="1"/>
   <rect display="inline" fill="none" height="8" id="rect9832" stroke="#757575" stroke-width="0.1" width="8" x="2" y="2"/>
  </g>
  <g display="none" id="g14695" transform="matrix(48.14969,0,0,48.14969,-1210.2219,-182.06834)">
   <rect display="inline" fill="none" height="10" id="rect14697" stroke="#757575" stroke-width="0.1" width="10" x="1" y="1"/>
   <rect display="inline" fill="none" height="8" id="rect14699" stroke="#757575" stroke-width="0.1" width="8" x="2" y="2"/>
  </g>
  <path d="m472.511,70.177c-1.474,-0.911 -3.312,-0.994 -4.864,-0.22c-0.373,0.186 -37.683,18.634 -68.936,18.634c-16.228,0 -32.842,-6.514 -48.909,-12.814c-15.506,-6.08 -30.152,-11.822 -44.16,-11.822c-14.159,0 -32.149,5.89 -51.195,12.126c-18.784,6.15 -38.208,12.51 -52.824,12.51c-23.788,0 -55.67,-16.913 -65.535,-22.49c-0.248,-2.53 -2.356,-4.515 -4.951,-4.515l-14.637,0c-2.761,0 -5,2.239 -5,5l0,463.296c0,2.762 2.239,5 5,5l14.636,0c2.761,0 5,-2.238 5,-5l0,-199.603c6.171,5.52 14.299,10.031 20.232,12.918c15.857,7.717 33.621,12.703 45.254,12.703c16.212,0 36.406,-6.612 55.936,-13.006c18.267,-5.98 35.52,-11.63 48.083,-11.63c12.118,0 25.909,5.407 40.51,11.132c16.933,6.639 34.441,13.504 52.56,13.504c33.643,0 71.799,-18.884 73.407,-19.688c1.693,-0.848 2.764,-2.579 2.764,-4.473l0,-257.31c0,-1.732 -0.897,-3.341 -2.371,-4.252zm-73.8,275.723c-4.843,0 -9.721,-0.59 -14.608,-1.571l0,-77.602c0,-1.177 -0.821,-2.195 -1.972,-2.443c-11.2,-2.423 -22.394,-6.796 -33.218,-11.026c-15.287,-5.973 -29.726,-11.614 -43.271,-11.614c-1.762,0 -3.604,0.143 -5.011,0.267c-1.29,0.114 -2.28,1.195 -2.28,2.49l0,77.33c-12.821,1.493 -27.989,6.448 -43.904,11.659c-14.233,4.66 -28.83,9.435 -41.428,11.478l0,-76.772c0,-0.718 -0.309,-1.401 -0.848,-1.876c-0.539,-0.475 -1.254,-0.693 -1.968,-0.604c-3.606,0.459 -6.252,0.665 -8.581,0.665c-23.035,0 -53.207,-15.316 -64.922,-21.785l-0.564,-79.459l0,-13.339c6.045,5.975 15.06,10.986 21.41,14.079c15.514,7.554 32.815,12.435 44.076,12.435c3.265,0 6.639,-0.376 9.212,-0.705c1.249,-0.159 2.184,-1.222 2.184,-2.48l0,-77.361c13.797,-2.027 29.365,-7.112 44.54,-12.081c14.949,-4.895 29.216,-9.563 40.792,-11.098l0,76.845c0,0.701 0.295,1.37 0.812,1.844c0.518,0.474 1.212,0.706 1.908,0.646c1.306,-0.115 3.005,-0.247 4.571,-0.247c12.604,0 26.616,5.475 41.452,11.271c11.007,4.301 22.39,8.748 33.98,11.255c0.175,0.038 0.353,0.057 0.528,0.057c0.565,0 1.121,-0.192 1.569,-0.554c0.589,-0.475 0.931,-1.19 0.931,-1.946l0,-76.454c4.825,0.869 9.693,1.387 14.608,1.387c25.349,0 53.262,-10.723 66.171,-16.353l0,79.354c-9.267,4.303 -39.096,17.093 -66.171,17.093c-3.601,0 -7.385,-0.307 -11.247,-0.911c-0.72,-0.114 -1.456,0.095 -2.012,0.57s-0.875,1.169 -0.875,1.899l0,82.121c0,1.231 0.896,2.28 2.113,2.47c4.115,0.644 8.159,0.971 12.021,0.971c26.254,0 54.782,-11.489 66.171,-16.599l0,79.368c-9.227,4.241 -39.847,17.326 -66.169,17.326z" fill="#007f00" id="svg_1" stroke="param(outline)" stroke-width="param(outline-width)"/>
  <path d="m295.683,154.934c-12.02,1.838 -25.846,6.352 -40.484,11.131c-13.71,4.476 -27.888,9.104 -40.322,11.29c-1.196,0.21 -2.067,1.249 -2.067,2.462l0,82.121c0,0.739 0.327,1.439 0.893,1.915c0.454,0.381 1.024,0.585 1.607,0.585c0.144,0 0.289,-0.012 0.433,-0.038c12.784,-2.247 27.133,-6.932 41.009,-11.462c14.437,-4.713 28.073,-9.165 39.688,-10.941c1.221,-0.187 2.122,-1.236 2.122,-2.471l0,-82.121c0,-0.729 -0.318,-1.422 -0.871,-1.896c-0.555,-0.476 -1.287,-0.686 -2.008,-0.575z" fill="#007f00" fill-opacity="param(fill-opacity)" id="svg_2" stroke="param(outline)" stroke-opacity="param(outline-opacity)" stroke-width="param(outline-width)"/>
 </g>
</svg>