<?xml version="1.0"?>
<svg width="580" height="580" xmlns="http://www.w3.org/2000/svg" xmlns:svg="http://www.w3.org/2000/svg" enable-background="new 0 0 580 580" version="1.1" xml:space="preserve">

 <g class="layer">
  <title>Layer 1</title>
  <g display="none" id="layer3" transform="matrix(48.1497 0 0 48.1497 -536.273 -33.3068)">
   <rect display="inline" fill="#ff7f00" height="10" id="rect4134" stroke="#757575" stroke-width="0.1" width="10" x="1" y="0.979231"/>
   <rect display="inline" fill="#ff7f00" height="8" id="rect4136" stroke="#757575" stroke-width="0.1" width="8" x="2" y="1.979231"/>
  </g>
  <path d="m322.792,183.322c9.735,0 18.117,-3.543 25.146,-10.632c7.029,-7.088 10.544,-15.797 10.544,-26.129c0,-10.342 -3.515,-19.058 -10.544,-26.146c-7.029,-7.087 -15.411,-10.632 -25.146,-10.632c-9.724,0 -18.013,3.544 -24.865,10.632c-6.854,7.088 -10.28,15.804 -10.28,26.146c0,10.332 3.426,19.041 10.28,26.129c6.852,7.089 15.141,10.633 24.865,10.632z" fill="#ff7f00" fill-opacity="param(fill-opacity)" id="svg_1" stroke="param(outline)" stroke-opacity="param(outline-opacity)" stroke-width="param(outline-width)"/>
  <path d="m420.154,338.268c-0.401,-5.088 -2.24,-9.771 -5.12,-13.637l-41.609,-110.552c-6.527,-17.34 -25.872,-26.109 -43.216,-19.581c-10.646,4.007 -18.053,12.849 -20.68,23.09l-18.042,7.935l-26.822,-40.906c-5.551,-8.466 -16.035,-11.719 -25.174,-8.503l-4.771,-9.814l6.786,-9.547c0.477,-0.67 0.53,-1.554 0.139,-2.277l-67.446,-124.497c-0.279,-0.515 -0.756,-0.895 -1.32,-1.051c-0.565,-0.157 -1.168,-0.077 -1.673,0.221l-28.272,16.692c-0.978,0.578 -1.34,1.815 -0.829,2.829l63.915,126.581c0.4,0.792 1.24,1.255 2.13,1.175l11.016,-1.05l7.404,13.191c-2.462,6.287 -1.959,13.625 2.024,19.701l36.831,56.171c4.094,6.244 10.959,9.743 18.045,9.743c2.913,0 5.863,-0.592 8.673,-1.827l27.046,-11.895l38.022,101.023c2.186,5.806 5.812,10.644 10.314,14.274l0,146.463c0,14.558 11.802,26.359 26.359,26.359s26.359,-11.802 26.359,-26.359l0,-161.402c2.495,-7.058 2.648,-14.982 -0.089,-22.55z" fill="#ff7f00" fill-opacity="param(fill-opacity)" id="svg_2" stroke="param(outline)" stroke-opacity="param(outline-opacity)" stroke-width="param(outline-width)"/>
  <path d="m254.55,357.582c0,-5.522 -4.477,-10 -10,-10l-24.667,0c-5.523,0 -10,4.478 -10,10s4.477,10 10,10l24.667,0c5.523,0 10,-4.477 10,-10z" fill="#ff7f00" fill-opacity="param(fill-opacity)" id="svg_3" stroke="param(outline)" stroke-opacity="param(outline-opacity)" stroke-width="param(outline-width)"/>
  <path d="m217.894,371.582c-0.003,0 -0.007,0 -0.01,0c-5.519,0 -9.995,4.471 -10,9.99l-0.159,165.661c-0.005,5.523 4.468,10.005 9.99,10.01c0.003,0 0.007,0 0.01,0c5.519,0 9.995,-4.471 10,-9.99l0.159,-165.661c0.005,-5.524 -4.468,-10.005 -9.99,-10.01z" fill="#ff7f00" fill-opacity="param(fill-opacity)" id="svg_4" stroke="param(outline)" stroke-opacity="param(outline-opacity)" stroke-width="param(outline-width)"/>
  <path d="m257.894,371.582c-0.003,0 -0.007,0 -0.01,0c-5.519,0 -9.995,4.471 -10,9.99l-0.159,165.661c-0.005,5.523 4.468,10.005 9.99,10.01c0.003,0 0.007,0 0.01,0c5.519,0 9.995,-4.471 10,-9.99l0.159,-165.661c0.005,-5.524 -4.468,-10.005 -9.99,-10.01z" fill="#ff7f00" fill-opacity="param(fill-opacity)" id="svg_5" stroke="param(outline)" stroke-opacity="param(outline-opacity)" stroke-width="param(outline-width)"/>
  <path d="m297.894,371.582c-0.004,0 -0.007,0 -0.01,0c-5.519,0 -9.995,4.471 -10,9.99l-0.159,165.661c-0.005,5.523 4.468,10.005 9.99,10.01c0.004,0 0.007,0 0.01,0c5.519,0 9.995,-4.471 10,-9.99l0.159,-165.661c0.005,-5.524 -4.468,-10.005 -9.99,-10.01z" fill="#ff7f00" fill-opacity="param(fill-opacity)" id="svg_6" stroke="param(outline)" stroke-opacity="param(outline-opacity)" stroke-width="param(outline-width)"/>
  <path d="m306.551,357.582c0,-5.522 -4.478,-10 -10,-10l-24.667,0c-5.523,0 -10,4.478 -10,10s4.477,10 10,10l24.667,0c5.522,0 10,-4.477 10,-10z" fill="#ff7f00" fill-opacity="param(fill-opacity)" id="svg_7" stroke="param(outline)" stroke-opacity="param(outline-opacity)" stroke-width="param(outline-width)"/>
 </g>
</svg>