<?xml version="1.0"?>
<svg width="580" height="580" xmlns="http://www.w3.org/2000/svg" xmlns:svg="http://www.w3.org/2000/svg" enable-background="new 0 0 580 580" version="1.1" xml:space="preserve">

 <g class="layer">
  <title>Layer 1</title>
  <path d="m547.919,115.72l-1.137,-0.579l-239.476,-78.33c-3.902,-1.646 -7.727,-2.017 -10.374,-2.017c-3.376,0 -6.652,0.593 -9.575,1.724l-252.467,75.305l-1.121,0.529c-8.058,3.802 -13.686,12.68 -13.686,21.59l0,21.123c0,4.849 1.666,9.458 4.692,12.98c3.573,4.159 8.792,6.544 14.321,6.544c2.43,0 4.826,-0.447 7.143,-1.33l250.635,-74.757l237.695,77.746c2.465,1.023 5.027,1.541 7.64,1.541c10.588,0 18.882,-8.542 18.882,-19.445l0,-21.124c-0.001,-8.706 -5.417,-17.547 -13.172,-21.5z" fill="#007f7f" fill-opacity="param(fill-opacity)" id="svg_1" stroke="param(outline)" stroke-opacity="param(outline-opacity)" stroke-width="param(outline-width)"/>
  <path d="m504.438,417.987c-7.013,-1.597 -13.404,-9.036 -25.055,-8.625c-11.934,0.414 -28.789,11.104 -45.074,11.104c-16.517,-0.352 -35.066,-11.578 -51.92,-11.578c-16.798,0.119 -32.068,11.754 -48.186,12.108c-16.401,0.058 -32.746,-10.866 -48.808,-11.102c-16.289,-0.413 -31.728,9.688 -46.942,9.567c-14.987,-0.294 -28.278,-11.045 -43.153,-10.574c-15.271,0.594 -32.011,12.404 -46.942,13.113c-15.043,0.237 -28.675,-10.983 -41.964,-11.104c-13.403,-0.236 -28.448,8.209 -37.497,10.1c-9.049,1.716 -14.761,1.893 -16.91,0.532l0,31.304c2.149,1.357 7.861,1.183 16.91,-0.532c9.049,-1.891 24.093,-10.336 37.497,-10.1c13.291,0.119 26.921,11.34 41.964,11.102c14.931,-0.589 31.671,-12.698 46.942,-13.112c14.875,-0.59 28.165,10.396 43.153,10.632c15.214,0.12 30.654,-9.92 46.942,-9.625c16.062,0.234 32.406,11.159 48.808,11.103c16.117,-0.354 31.388,-11.991 48.186,-12.109c16.854,-0.056 35.403,11.342 51.92,11.639c16.285,0 33.142,-10.693 45.074,-11.105c11.65,-0.533 18.042,7.028 25.055,8.563c6.899,1.477 12.159,1.713 16.231,0.472l0,-31.303c-4.071,1.244 -9.331,1.006 -16.231,-0.47z" fill="#007f7f" fill-opacity="param(fill-opacity)" id="svg_2" stroke="param(outline)" stroke-opacity="param(outline-opacity)" stroke-width="param(outline-width)"/>
  <path d="m290.37,395.252c13.235,1.297 25.79,14.053 41.626,14.113c15.778,-0.294 35.46,-15.059 52.71,-15.121c17.305,0.063 35.855,13.293 49.769,14.647c13.687,1.007 23.811,-1.536 31.445,-8.091l-59.213,-130.288c16.457,-6.144 30.708,-11.694 43.661,-16.655c12.781,-5.198 29.635,-6.852 32.917,-13.406c2.997,-6.734 3.731,-26.697 -14.367,-25.752c-18.493,1.122 -75.163,24.156 -94.107,32.188c-18.947,7.736 -15.497,8.622 -17.985,14.469c-2.432,5.67 -0.623,8.328 3.677,20.258c4.186,11.99 11.369,28.82 21.547,51.146l-129.399,69.043c11.932,-5.67 24.431,-7.855 37.719,-6.551z" fill="#007f7f" fill-opacity="param(fill-opacity)" id="svg_3" stroke="param(outline)" stroke-opacity="param(outline-opacity)" stroke-width="param(outline-width)"/>
  <path d="m485.134,289.063c-19.95,0 -36.14,16.906 -36.14,37.739c0,20.832 16.19,37.738 36.14,37.738c19.948,0 36.138,-16.906 36.138,-37.738c-0.001,-20.832 -16.189,-37.739 -36.138,-37.739z" fill="#007f7f" fill-opacity="param(fill-opacity)" id="svg_4" stroke="param(outline)" stroke-opacity="param(outline-opacity)" stroke-width="param(outline-width)"/>
  <path d="m117.425,391.23c16.966,5.911 32.575,10.277 47.902,13.113c11.99,-5.61 23.019,-8.445 33.538,-8.268c10.463,0.234 20.756,7.735 28.9,9.096c8.031,1.182 14.309,0.354 19.06,-2.244c-38.629,-15.887 -71.375,-28.584 -99.991,-38.745c-28.788,-10.277 -56.5,-22.681 -70.469,-21.912c-13.914,0.768 -18.947,17.659 -12.047,26.104c6.9,8.21 36.026,16.599 53.107,22.856z" fill="#007f7f" fill-opacity="param(fill-opacity)" id="svg_5" stroke="param(outline)" stroke-opacity="param(outline-opacity)" stroke-width="param(outline-width)"/>
  <path d="m504.438,470.316c-7.013,-1.535 -13.404,-9.099 -25.055,-8.566c-11.934,0.413 -28.789,11.103 -45.074,11.103c-16.517,-0.353 -35.066,-11.574 -51.92,-11.574c-16.798,0.119 -32.068,11.754 -48.186,12.106c-16.401,0.061 -32.746,-10.865 -48.808,-11.103c-16.289,-0.414 -31.728,9.687 -46.942,9.568c-14.987,-0.295 -28.278,-11.045 -43.153,-10.572c-15.271,0.59 -32.011,12.401 -46.942,13.113c-15.043,0.234 -28.675,-10.988 -41.964,-11.105c-13.403,-0.234 -28.448,8.209 -37.497,10.1c-9.049,1.834 -14.761,1.772 -16.91,0.474l0,31.303c2.149,1.298 7.861,1.359 16.91,-0.474c9.049,-1.892 24.093,-10.335 37.497,-10.101c13.291,0.118 26.921,11.341 41.964,11.105c14.931,-0.711 31.671,-12.522 46.942,-13.112c14.875,-0.474 28.165,10.277 43.153,10.572c15.214,0.117 30.654,-9.982 46.942,-9.568c16.062,0.236 32.406,11.163 48.808,11.103c16.117,-0.353 31.388,-11.991 48.186,-12.106c16.854,0 35.403,11.222 51.92,11.574c16.285,0 33.142,-10.689 45.074,-11.103c11.65,-0.414 18.042,7.026 25.055,8.623c6.899,1.478 12.159,1.714 16.231,0.475l0,-31.303c-4.071,1.121 -9.331,0.945 -16.231,-0.532z" fill="#007f7f" id="svg_6" stroke="param(outline)" stroke-width="param(outline-width)"/>
 </g>
</svg>