<?xml version="1.0"?>
<svg width="580" height="580" xmlns="http://www.w3.org/2000/svg" xmlns:svg="http://www.w3.org/2000/svg" enable-background="new 0 0 580 580" version="1.1" xml:space="preserve">

 <g class="layer">
  <title>Layer 1</title>
  <path d="m501.772,419.162l0,-211.339l52.274,0l0,-58.906l3.849,0l-3.849,-1.305l0,-13.379l-39.449,0l-220.917,-74.921l-225.108,74.921l-40.46,0l0,13.467l-3.659,1.218l3.659,0l0,58.906l48.995,0l0,211.339l-22.902,0l-31.045,51.304l534.483,-0.93l-29.084,-50.375l-26.787,0zm-302.06,-211.339l0,211.339l-74.117,0l0,-211.339l74.117,0zm48.487,0l82.482,0l0,211.339l-82.482,0l0,-211.339zm130.969,0l74.118,0l0,211.339l-74.118,0l0,-211.339z" fill="#7f007f" id="svg_1" stroke="param(outline)" stroke-width="param(outline-width)"/>
 </g>
</svg>