<?xml version="1.0"?>
<svg width="580" height="580" xmlns="http://www.w3.org/2000/svg" xmlns:svg="http://www.w3.org/2000/svg" enable-background="new 0 0 580 580" version="1.1" xml:space="preserve">
 <g class="layer">
  <title>Layer 1</title>
  <path d="m507.563,142.968l0,-38.967l-58.913,0l0,-58.898l-39.282,0l0,58.899l-99.333,0l0,-57.773l-39.282,0l0,57.772l-99.973,0l0,-56.822l-39.282,0l0,56.822l-56.232,0l0,38.967l56.232,0l0,85.033l-56.232,0l0,38.967l56.232,0l0,85.033l-56.232,0l0,38.968l56.232,0l0,83.939l-35.544,0l54.917,59.836l55.958,-59.836l-36.047,0l0,-83.939l99.973,0l0,84.825l-35.039,0l54.916,59.836l55.958,-59.836l-36.554,0l0,-84.825l99.333,0l0,84.825l-33.653,0l54.916,59.836l55.958,-59.836l-37.94,0l0,-84.825l58.913,0l0,-38.968l-58.913,0l0,-85.033l58.913,0l0,-38.967l-58.913,0l0,-85.033l58.913,0zm-236.81,85.033l-99.973,0l0,-85.033l99.973,0l0,85.033zm0,38.967l0,85.033l-99.973,0l0,-85.033l99.973,0zm39.282,0l99.333,0l0,85.033l-99.333,0l0,-85.033zm0,-38.967l0,-85.033l99.333,0l0,85.033l-99.333,0z" fill="#7f003f" id="svg_1" stroke="param(outline)" stroke-width="param(outline-width)"/>
 </g>
</svg>