<?xml version="1.0"?>
<svg width="580" height="580" xmlns="http://www.w3.org/2000/svg" xmlns:svg="http://www.w3.org/2000/svg" enable-background="new 0 0 580 580" version="1.1" xml:space="preserve">
 <g class="layer">
  <title>Layer 1</title>
  <path d="m519.817,479.162l0,-313.339l34.229,0l0,-56.906l3.849,0l-3.849,-1.305l0,-15.379l-45.346,0l-215.02,-72.921l-219.098,72.921l-46.47,0l0,15.467l-3.659,1.218l3.659,0l0,56.906l34.84,0l0,313.339l-8.747,0l-31.045,51.304l534.483,-0.93l-29.084,-50.375l-8.742,0zm-60.576,-313.339l0,313.339l-335.491,0l0,-313.339l335.491,0z" fill="#3f007f" id="svg_1" stroke="param(outline)" stroke-width="param(outline-width)"/>
  <path d="m184.579,379.207c9.607,16.273 23.822,30.879 40.218,41.314c11.272,7.176 32.006,14.762 44.354,16.376c7.387,0.966 17.134,2.368 30.521,2.156l5.331,29.035c0.607,4.653 10.992,3.364 10.813,-1.05l-4.824,-28.524c0.351,-0.027 0.707,-0.058 1.062,-0.088l6.585,19.954c1.261,4.533 10.516,1.994 9.682,-2.354l-5.915,-18.73c3.052,-0.408 6.229,-0.894 9.555,-1.477c23.497,-5.474 46.744,-20.301 59.249,-34.638s14.7,-20.726 17.819,-36.118c3.8,-18.753 -1.416,-44.514 -12.97,-64.117c-7.59,-12.877 -21.285,-28.094 -31.559,-35.042c-17.56,-11.875 -49.136,-23.786 -69.697,-26.305c-5.977,-0.328 -11.79,-0.921 -17.633,-1.088l-4.526,-26.764l-14.354,1.896l4.709,25.65c-0.977,0.159 -1.959,0.35 -2.947,0.564l-9.882,-31.292l-12.775,3.622l10.504,31.83c-1.091,0.518 -2.189,1.071 -3.301,1.682c-1.715,0.493 -5.334,6.152 -8.64,9.814c-10.679,11.832 -12.642,28.604 -5.022,42.777c7.92,14.732 6.59,24.893 -3.675,28.057c-4.347,1.34 -6.261,0.98 -15.856,-2.791c-6.001,-2.357 -13.073,-4.27 -15.702,-4.252c-7.43,0.048 -14.593,4.52 -18.493,11.507c-2.927,5.245 -3.431,7.571 -3.464,16.665c-0.042,11.626 1.375,15.713 10.833,31.731zm181.095,-53.187c1.709,-1.939 3.557,-2.672 7.313,-2.636c0.866,0.009 1.833,0.068 2.925,0.154c13.867,1.086 17.877,6.533 14.259,19.358c-1.09,3.863 -2.26,9.462 -2.598,12.469c-1.388,12.356 -8.7,17.838 -18.223,13.624c-16.475,-7.29 -16.436,-7.272 -18.454,-15.895c-2.047,-8.742 -1.318,-10.624 7.639,-19.569c2.428,-2.425 5.644,-5.806 7.139,-7.505zm-48.165,-44.008c2.88,-3.301 6.659,-8.141 8.409,-10.757c2.452,-3.664 3.53,-4.541 6.851,-4.561c0.475,-0.003 0.982,0.012 1.559,0.039c6.738,0.308 12.813,2.629 15.375,5.869c2.938,3.714 7.207,22.481 6.331,27.826c-0.698,4.257 -10.138,16.029 -12.854,16.029c-0.637,0 -1.888,0.268 -2.79,0.596c-0.902,0.329 -3.594,-0.264 -5.966,-1.309c-2.371,-1.045 -5.808,-1.941 -7.639,-2.001c-5.605,-0.181 -9.173,-2.941 -11.912,-9.218c-4.23,-9.692 -3.543,-15.43 2.636,-22.513zm-7.87,87.883c2.971,-3.4 4.862,-5.072 7.678,-5.215c0.155,-0.008 0.301,-0.021 0.462,-0.02c2.418,0.02 5.563,1.084 10.507,3.021c3.049,1.193 7.185,2.676 9.217,3.309c2.858,0.891 4.459,2.914 7.023,8.91c6.112,14.287 3.99,20.996 -7.523,23.822c-3.469,0.852 -8.293,2.487 -10.737,3.656c-5.194,2.484 -9.779,2.457 -13.222,0.272l-7.831,-24.795c-0.589,-7.236 0.563,-8.542 4.426,-12.96zm-17.897,-90.885c0,5.529 -1.979,10.6 -5.265,14.543l-5.751,-34.01c6.6,3.972 11.016,11.204 11.016,19.467zm-25.586,-22.519l1.182,6.44l-1.997,-6.324c0.27,-0.044 0.542,-0.081 0.815,-0.116zm-12.287,5.618l13.043,39.525c-11.544,-1.074 -20.602,-10.802 -20.602,-22.624c0,-6.713 2.921,-12.744 7.559,-16.901zm-1.882,109.555c1.643,-0.264 3.834,-1.35 4.869,-2.405c1.034,-1.056 4.228,-2.345 7.081,-2.867c1.067,-0.195 1.98,-0.298 2.867,-0.308c2.661,-0.029 4.922,0.878 9.121,3.31c6.616,3.831 12.932,11.2 12.932,15.067c0,1.051 -1.108,4.386 -2.463,7.428c-1.355,3.041 -2.48,6.504 -2.501,7.697s-1.454,4.014 -3.175,6.254c-2.74,3.566 -4.187,4.143 -11.642,4.753c-7.062,0.578 -8.624,0.327 -9.256,-1.559c-0.419,-1.251 -3.284,-3.724 -6.37,-5.484c-3.808,-2.173 -6.167,-4.676 -7.293,-7.755c-3.569,-9.76 -0.333,-23.139 5.83,-24.131zm-54.419,-14.336c1.608,-6.143 7.252,-12.604 11.065,-12.797c0.123,-0.006 0.227,-0.006 0.346,0c1.586,0.094 6.765,0.34 11.507,0.539c4.743,0.2 9.32,0.887 10.18,1.501c2.073,1.483 7.678,14.216 7.678,17.454c0,4.037 -3.349,8.513 -11.45,15.259c-6.414,5.341 -8.385,6.254 -13.431,6.254c-6.052,0.001 -10.834,-3.331 -10.834,-7.543c0,-1.048 -1.439,-4.996 -3.194,-8.774c-2.789,-6.003 -3.017,-7.498 -1.867,-11.893z" fill="#3f007f" fill-opacity="param(fill-opacity)" id="svg_2" stroke="param(outline)" stroke-opacity="param(outline-opacity)" stroke-width="param(outline-width)"/>
  <path d="m249.403,207.527c-0.467,-5.133 2.438,-9.144 -2.273,-14.982c-6.59,-8.167 -9.694,-10.613 -13.723,-15.226c-2.512,9.19 -6.256,20.839 3.789,32.955l12.207,-2.747z" fill="#3f007f" fill-opacity="param(fill-opacity)" id="svg_3" stroke="param(outline)" stroke-opacity="param(outline-opacity)" stroke-width="param(outline-width)"/>
  <path d="m271.99,210.618c0.347,-5.143 4.138,-8.729 0.033,-15.131c-5.743,-8.956 -8.681,-11.788 -12.253,-16.887c-4.226,8.765 -10.186,19.801 -1.376,33.122l13.596,-1.104z" fill="#3f007f" fill-opacity="param(fill-opacity)" id="svg_4" stroke="param(outline)" stroke-opacity="param(outline-opacity)" stroke-width="param(outline-width)"/>
 </g>
</svg>